<?xml version="1.0" ?><!DOCTYPE svg  PUBLIC '-//W3C//DTD SVG 1.1//EN'  'http://www.w3.org/Graphics/SVG/1.1/DTD/svg11.dtd'><svg enable-background="new 0 0 512 512" height="512px" id="Layer_1" version="1.1" viewBox="0 0 512 512" width="512px" xml:space="preserve" xmlns="http://www.w3.org/2000/svg" xmlns:xlink="http://www.w3.org/1999/xlink"><g><path clip-rule="evenodd" d="M0,256.215C0,114.73,114.73,0,256.23,0   C397.263,0,512,114.73,512,256.215C512,397.263,397.263,512,256.23,512C114.73,512,0,397.263,0,256.215L0,256.215z" fill="#E9E8E9" fill-rule="evenodd"/><path clip-rule="evenodd" d="M493.408,352.361H18.592C56.682,445.788,148.742,512,256.23,512   C363.251,512,455.303,445.788,493.408,352.361L493.408,352.361z" fill="#46B59C" fill-rule="evenodd"/><path clip-rule="evenodd" d="M18.592,160.085h474.816C455.303,66.212,363.703,0,256.23,0   C148.742,0,56.682,66.212,18.592,160.085L18.592,160.085z" fill="#BE3530" fill-rule="evenodd"/></g></svg>