<?xml version="1.0" ?><!DOCTYPE svg  PUBLIC '-//W3C//DTD SVG 1.1//EN'  'http://www.w3.org/Graphics/SVG/1.1/DTD/svg11.dtd'><svg enable-background="new 0 0 512 512" height="512px" id="Layer_1" version="1.1" viewBox="0 0 512 512" width="512px" xml:space="preserve" xmlns="http://www.w3.org/2000/svg" xmlns:xlink="http://www.w3.org/1999/xlink"><g><path clip-rule="evenodd" d="M256.23,512C396.81,512,512,396.81,512,256.215   C512,115.184,396.81,0,256.23,0C115.184,0,0,115.184,0,256.215C0,396.81,115.184,512,256.23,512L256.23,512z" fill="#EABD56" fill-rule="evenodd"/><path clip-rule="evenodd" d="M159.632,493.408V18.592C66.212,56.682,0,148.742,0,256.215   C0,363.251,66.212,455.303,159.632,493.408L159.632,493.408z" fill="#177298" fill-rule="evenodd"/><path clip-rule="evenodd" d="M351.908,18.592v474.816C445.788,455.303,512,363.703,512,256.215   C512,148.742,445.788,56.682,351.908,18.592L351.908,18.592z" fill="#BE3530" fill-rule="evenodd"/></g></svg>