<?xml version="1.0" ?><!DOCTYPE svg  PUBLIC '-//W3C//DTD SVG 1.1//EN'  'http://www.w3.org/Graphics/SVG/1.1/DTD/svg11.dtd'><svg enable-background="new 0 0 512 512" height="512px" id="Layer_1" version="1.1" viewBox="0 0 512 512" width="512px" xml:space="preserve" xmlns="http://www.w3.org/2000/svg" xmlns:xlink="http://www.w3.org/1999/xlink"><g><path clip-rule="evenodd" d="M0,256.215C0,114.73,114.73,0,256.23,0   C397.263,0,512,114.73,512,256.215C512,397.263,397.263,512,256.23,512C114.73,512,0,397.263,0,256.215L0,256.215z" fill="#EABD56" fill-rule="evenodd"/><path clip-rule="evenodd" d="M56.229,96.139h399.527C409.059,37.637,336.94,0,256.23,0   C175.044,0,103.396,37.637,56.229,96.139L56.229,96.139z" fill="#BE3530" fill-rule="evenodd"/><path clip-rule="evenodd" d="M455.756,416.308H56.229C103.396,474.348,175.044,512,256.23,512   C336.94,512,409.059,474.348,455.756,416.308L455.756,416.308z" fill="#BE3530" fill-rule="evenodd"/></g></svg>